<?xml version="1.0" encoding="UTF-8"?>
<svg width="54px" height="54px" viewBox="0 0 54 54" version="1.1" xmlns="http://www.w3.org/2000/svg" xmlns:xlink="http://www.w3.org/1999/xlink">
    <title>Group 32</title>
    <g id="Page-1" stroke="none" stroke-width="1" fill="none" fill-rule="evenodd">
        <g id="Group-32" fill-rule="nonzero">
            <rect id="Rectangle" fill="#FF0000" x="0" y="0" width="54" height="54"></rect>
            <g id="Group-25" transform="translate(6.000000, 16.000000)" fill="#FFFFFF">
                <path d="M11.805091,12.8868446 C11.805091,12.8868446 11.805091,13.0032467 11.805091,13.0032467 L15.7071322,21.9662097 C15.8218981,22.0826118 15.7071322,22.1990139 15.5923662,22.1990139 L12.0346228,22.1990139 C11.9198569,22.1990139 11.9198569,22.0826118 11.9198569,22.0826118 L8.36211351,13.9344637 C8.36211351,13.8180615 8.24734759,13.8180615 8.24734759,13.8180615 L3.42717909,13.8180615 C3.31241318,13.8180615 3.31241318,13.8180615 3.31241318,13.9344637 L3.31241318,22.0826118 C3.31241318,22.1990139 3.19764726,22.1990139 3.19764726,22.1990139 L-0.13056432,22.1990139 C-0.245330236,22.1990139 -0.245330236,22.0826118 -0.245330236,22.0826118 L-0.245330236,0.315416034 C-0.245330236,0.199013917 -0.13056432,0.199013917 -0.13056432,0.199013917 L8.93594309,0.199013917 C12.3789206,0.199013917 15.4776003,3.10906683 15.4776003,6.95033667 C15.1333026,9.62758535 13.7561116,11.7228234 11.805091,12.8868446 Z M8.86578087,10.1990139 C10.4213364,10.0783243 11.7546698,8.6300484 11.7546698,6.69901392 C11.7546698,4.76797943 10.3102253,3.19901392 8.75466976,3.19901392 L3.86578087,3.19901392 C3.75466976,3.19901392 3.75466976,3.31970357 3.75466976,3.31970357 L3.75466976,9.95763461 C3.75466976,10.0783243 3.86578087,10.0783243 3.86578087,10.0783243 L8.86578087,10.0783243 L8.86578087,10.1990139 Z" id="Shape"></path>
                <path d="M37.2036035,22 C37.0872014,22 37.0872014,21.8835979 37.0872014,21.8835979 L37.0872014,3.84126984 C37.0872014,3.72486772 36.8543971,3.60846561 36.737995,3.84126984 L32.663921,21.8835979 C32.663921,22 32.5475188,22 32.5475188,22 L26.727413,22 C26.6110109,22 26.6110109,22 26.6110109,21.8835979 L22.5369368,3.84126984 C22.4205347,3.60846561 22.1877305,3.72486772 22.1877305,3.84126984 L22.1877305,21.7671958 C22.1877305,21.8835979 22.0713284,21.8835979 22.0713284,21.8835979 L18.695667,21.8835979 C18.5792649,21.8835979 18.5792649,21.7671958 18.5792649,21.7671958 L18.5792649,0.116402116 C18.5792649,0 18.695667,0 18.695667,0 L25.2141855,0 C25.3305876,0 25.4469897,0 25.4469897,0.116402116 L29.6374659,18.042328 C29.753868,18.2751323 29.8702702,18.2751323 29.9866723,18.042328 L34.1771485,0.116402116 C34.1771485,0 34.2935506,0 34.4099527,0 L40.9284712,0 C41.0448733,0 41.0448733,0.116402116 41.0448733,0.116402116 L41.0448733,21.7671958 C41.0448733,21.8835979 40.9284712,21.8835979 40.9284712,21.8835979 L37.2036035,21.8835979 L37.2036035,22 Z" id="Path"></path>
            </g>
        </g>
    </g>
</svg>