<?xml version="1.0" encoding="UTF-8"?>
<svg width="231px" height="38px" viewBox="0 0 231 38" version="1.1" xmlns="http://www.w3.org/2000/svg" xmlns:xlink="http://www.w3.org/1999/xlink">
    <title>rm_primary</title>
    <g id="Page-1" stroke="none" stroke-width="1" fill="none" fill-rule="evenodd">
        <g id="Home" transform="translate(-75.000000, -63.000000)" fill-rule="nonzero">
            <g id="rm_primary" transform="translate(75.000000, 63.000000)">
                <rect id="Rectangle" fill="#FF0000" x="0" y="0" width="230.370751" height="37.5863059"></rect>
                <g id="Group" transform="translate(9.515520, 9.515520)" fill="#FFFFFF">
                    <path d="M10.4670725,10.6573829 C10.4670725,10.6573829 10.4670725,10.7525381 10.4670725,10.7525381 L13.7023495,18.0794889 C13.7975047,18.1746441 13.7023495,18.2697993 13.6071943,18.2697993 L10.6573829,18.2697993 C10.5622277,18.2697993 10.5622277,18.1746441 10.5622277,18.1746441 L7.61241637,11.5137798 C7.61241637,11.4186246 7.51726117,11.4186246 7.51726117,11.4186246 L3.52074257,11.4186246 C3.42558737,11.4186246 3.42558737,11.4186246 3.42558737,11.5137798 L3.42558737,18.1746441 C3.42558737,18.2697993 3.33043216,18.2697993 3.33043216,18.2697993 L0.570931228,18.2697993 C0.475776023,18.2697993 0.475776023,18.1746441 0.475776023,18.1746441 L0.475776023,0.380620819 C0.475776023,0.285465614 0.570931228,0.285465614 0.570931228,0.285465614 L8.0881924,0.285465614 C10.9428485,0.285465614 13.5120391,2.66434573 13.5120391,5.80446749 C13.2265735,7.99303719 12.084711,9.70583088 10.4670725,10.6573829 Z M7.70757158,8.56396842 C9.03974445,8.46881322 10.1816069,7.32695076 10.1816069,5.80446749 C10.1816069,4.28198421 8.94458924,3.04496655 7.61241637,3.04496655 L3.42558737,3.04496655 C3.33043216,3.04496655 3.33043216,3.14012175 3.33043216,3.14012175 L3.33043216,8.37365801 C3.33043216,8.46881322 3.42558737,8.46881322 3.42558737,8.46881322 L7.70757158,8.46881322 L7.70757158,8.56396842 Z" id="Shape"></path>
                    <path d="M22.9324043,18.4601097 C17.5085577,18.4601097 14.8442119,14.6539015 14.8442119,9.23005485 C14.8442119,3.80620819 17.5085577,0 22.9324043,0 C28.356251,0 31.0205967,3.80620819 31.0205967,9.23005485 C31.0205967,14.6539015 28.2610958,18.4601097 22.9324043,18.4601097 Z M27.7853198,9.23005485 C27.7853198,5.23353626 26.0725261,2.75950094 22.9324043,2.75950094 C19.7922826,2.75950094 18.0794889,5.13838105 18.0794889,9.23005485 C18.0794889,13.3217287 19.7922826,15.7006088 22.9324043,15.7006088 C26.0725261,15.7006088 27.7853198,13.2265735 27.7853198,9.23005485 Z" id="Shape"></path>
                    <path d="M41.6779797,18.2697993 L33.2091664,18.2697993 C33.1140112,18.2697993 33.1140112,18.1746441 33.1140112,18.1746441 L33.1140112,0.380620819 C33.1140112,0.285465614 33.2091664,0.285465614 33.2091664,0.285465614 L41.6779797,0.285465614 C44.5326358,0.285465614 46.5308951,2.66434573 46.5308951,5.51900187 C46.5308951,6.94632994 45.579343,8.46881322 44.5326358,9.03974445 C44.4374806,9.13489965 44.4374806,9.23005485 44.5326358,9.32521006 C45.7696535,9.89614129 46.9115159,11.4186246 46.9115159,13.036263 C46.9115159,16.0812296 44.8181014,18.2697993 41.6779797,18.2697993 Z M41.392514,3.04496655 L36.1589778,3.04496655 C36.0638226,3.04496655 36.0638226,3.14012175 36.0638226,3.14012175 L36.0638226,7.61241637 C36.0638226,7.70757158 36.0638226,7.70757158 36.1589778,7.70757158 L41.2022036,7.70757158 C42.3440661,7.61241637 43.4859285,6.75601953 43.4859285,5.51900187 C43.4859285,4.28198421 42.7246869,3.04496655 41.392514,3.04496655 Z M41.2022036,15.4151432 C42.5343765,15.4151432 43.8665494,14.1781255 43.8665494,12.9411078 C43.8665494,11.7040902 42.7246869,10.4670725 41.392514,10.4670725 L36.1589778,10.4670725 C36.0638226,10.4670725 36.0638226,10.5622277 36.0638226,10.5622277 L36.0638226,15.2248327 C36.0638226,15.319988 36.1589778,15.319988 36.1589778,15.319988 L41.2022036,15.319988 L41.2022036,15.4151432 Z" id="Shape"></path>
                    <path d="M49.290396,18.2697993 C49.1952408,18.2697993 49.1952408,18.1746441 49.1952408,18.1746441 L49.1952408,0.380620819 C49.1952408,0.285465614 49.290396,0.285465614 49.290396,0.285465614 L52.049897,0.285465614 C52.1450522,0.285465614 52.1450522,0.380620819 52.1450522,0.380620819 L52.1450522,18.0794889 C52.1450522,18.1746441 52.049897,18.1746441 52.049897,18.1746441 L49.290396,18.1746441 L49.290396,18.2697993 Z" id="Path"></path>
                    <path d="M70.1293859,0.285465614 C70.2245411,0.285465614 70.2245411,0.380620819 70.2245411,0.380620819 L70.2245411,18.0794889 C70.2245411,18.1746441 70.1293859,18.1746441 70.1293859,18.1746441 L66.3231777,18.1746441 C66.2280225,18.1746441 66.1328673,18.0794889 66.1328673,18.0794889 L59.1865373,4.66260503 C59.0913821,4.47229462 58.9010717,4.56744982 58.9010717,4.66260503 L58.9010717,18.0794889 C58.9010717,18.1746441 58.8059165,18.1746441 58.8059165,18.1746441 L55.9512604,18.1746441 C55.8561052,18.1746441 55.8561052,18.0794889 55.8561052,18.0794889 L55.8561052,0.380620819 C55.8561052,0.285465614 55.9512604,0.285465614 55.9512604,0.285465614 L59.7574685,0.285465614 C59.8526237,0.285465614 59.8526237,0.380620819 59.947779,0.380620819 L66.8941089,13.7975047 C66.9892641,13.9878151 67.1795745,13.8926599 67.1795745,13.7975047 L67.1795745,0.380620819 C67.1795745,0.285465614 67.2747297,0.285465614 67.2747297,0.285465614 L70.1293859,0.285465614 Z" id="Path"></path>
                    <path d="M80.0255271,18.4601097 C74.9823013,18.4601097 73.0791972,15.7006088 73.0791972,13.3217287 C73.0791972,13.2265735 73.1743524,13.2265735 73.1743524,13.2265735 L76.1241637,13.2265735 C76.219319,13.2265735 76.219319,13.3217287 76.219319,13.3217287 C76.219319,14.5587463 77.8369574,15.7006088 80.0255271,15.7006088 C82.1189416,15.7006088 83.7365801,14.4635911 83.7365801,13.036263 C83.7365801,11.8944006 82.6898729,10.8476933 80.0255271,10.5622277 C75.8386981,10.1816069 73.1743524,8.94458924 73.1743524,5.32869146 C73.1743524,1.9982593 76.3144742,-1.69029599e-15 79.5497511,-1.69029599e-15 C82.9753385,-1.69029599e-15 86.020305,1.90310409 86.020305,5.13838105 C86.020305,5.23353626 85.9251498,5.23353626 85.9251498,5.23353626 L82.9753385,5.23353626 C82.8801833,5.23353626 82.8801833,5.13838105 82.8801833,5.13838105 C82.8801833,3.9965186 81.6431656,2.75950094 79.5497511,2.75950094 C77.8369574,2.75950094 76.4096294,3.90136339 76.4096294,5.23353626 C76.4096294,6.75601953 78.3127335,7.13664035 80.1206823,7.42210597 C82.7850281,7.70757158 86.9718571,8.27850281 86.9718571,12.9411078 C86.8767019,16.3666952 84.2123561,18.4601097 80.0255271,18.4601097 Z" id="Path"></path>
                    <path d="M127.888595,18.2697993 C127.79344,18.2697993 127.79344,18.1746441 127.79344,18.1746441 L127.79344,3.42558737 C127.79344,3.33043216 127.603129,3.23527696 127.507974,3.42558737 L124.177542,18.1746441 C124.177542,18.2697993 124.082387,18.2697993 124.082387,18.2697993 L119.324627,18.2697993 C119.229471,18.2697993 119.229471,18.2697993 119.229471,18.1746441 L115.899039,3.42558737 C115.803884,3.23527696 115.613574,3.33043216 115.613574,3.42558737 L115.613574,18.0794889 C115.613574,18.1746441 115.518418,18.1746441 115.518418,18.1746441 L112.758918,18.1746441 C112.663762,18.1746441 112.663762,18.0794889 112.663762,18.0794889 L112.663762,0.380620819 C112.663762,0.285465614 112.758918,0.285465614 112.758918,0.285465614 L118.087609,0.285465614 C118.182764,0.285465614 118.277919,0.285465614 118.277919,0.380620819 L121.703507,15.0345223 C121.798662,15.2248327 121.893817,15.2248327 121.988972,15.0345223 L125.41456,0.380620819 C125.41456,0.285465614 125.509715,0.285465614 125.60487,0.285465614 L130.933562,0.285465614 C131.028717,0.285465614 131.028717,0.380620819 131.028717,0.380620819 L131.028717,18.0794889 C131.028717,18.1746441 130.933562,18.1746441 130.933562,18.1746441 L127.888595,18.1746441 L127.888595,18.2697993 Z" id="Path"></path>
                    <path d="M140.924858,18.4601097 C135.501011,18.4601097 132.836666,14.6539015 132.836666,9.23005485 C132.836666,3.80620819 135.501011,0 140.924858,0 C146.348705,0 149.013051,3.80620819 149.013051,9.23005485 C149.013051,14.6539015 146.25355,18.4601097 140.924858,18.4601097 Z M145.777774,9.23005485 C145.777774,5.23353626 144.06498,2.75950094 140.924858,2.75950094 C137.784736,2.75950094 136.071943,5.13838105 136.071943,9.23005485 C136.071943,13.3217287 137.784736,15.7006088 140.924858,15.7006088 C144.06498,15.7006088 145.777774,13.2265735 145.777774,9.23005485 Z" id="Shape"></path>
                    <path d="M161.192917,10.6573829 C161.192917,10.6573829 161.192917,10.7525381 161.192917,10.7525381 L164.428194,18.0794889 C164.523349,18.1746441 164.428194,18.2697993 164.333038,18.2697993 L161.383227,18.2697993 C161.288072,18.2697993 161.288072,18.1746441 161.288072,18.1746441 L158.338261,11.5137798 C158.338261,11.4186246 158.243105,11.4186246 158.243105,11.4186246 L154.151432,11.4186246 C154.056276,11.4186246 154.056276,11.4186246 154.056276,11.5137798 L154.056276,18.1746441 C154.056276,18.2697993 153.961121,18.2697993 153.961121,18.2697993 L151.20162,18.2697993 C151.106465,18.2697993 151.106465,18.1746441 151.106465,18.1746441 L151.106465,0.380620819 C151.106465,0.285465614 151.20162,0.285465614 151.20162,0.285465614 L158.718881,0.285465614 C161.573538,0.285465614 164.142728,2.66434573 164.142728,5.80446749 C163.952418,7.99303719 162.810555,9.70583088 161.192917,10.6573829 Z M158.433416,8.56396842 C159.765589,8.46881322 160.907451,7.32695076 160.907451,5.80446749 C160.907451,4.28198421 159.670433,3.04496655 158.338261,3.04496655 L154.151432,3.04496655 C154.056276,3.04496655 154.056276,3.14012175 154.056276,3.14012175 L154.056276,8.37365801 C154.056276,8.46881322 154.151432,8.46881322 154.151432,8.46881322 L158.433416,8.46881322 L158.433416,8.56396842 Z" id="Shape"></path>
                    <path d="M172.992162,18.0794889 C172.992162,18.1746441 172.897007,18.1746441 172.897007,18.1746441 L170.137506,18.1746441 C170.042351,18.1746441 170.042351,18.0794889 170.042351,18.0794889 L170.042351,3.23527696 C170.042351,3.14012175 169.947196,3.14012175 169.947196,3.14012175 L165.189435,3.14012175 C165.09428,3.14012175 165.09428,3.04496655 165.09428,3.04496655 L165.09428,0.475776023 C165.09428,0.380620819 165.189435,0.380620819 165.189435,0.380620819 L177.940233,0.380620819 C178.035388,0.380620819 178.035388,0.475776023 178.035388,0.475776023 L178.035388,3.04496655 C178.035388,3.14012175 177.940233,3.14012175 177.940233,3.14012175 L173.182473,3.14012175 C173.087317,3.14012175 173.087317,3.23527696 173.087317,3.23527696 L173.087317,18.0794889 L172.992162,18.0794889 Z" id="Path"></path>
                    <path d="M186.409046,18.4601097 C180.985199,18.4601097 178.320854,14.6539015 178.320854,9.23005485 C178.320854,3.80620819 180.985199,0 186.409046,0 C191.832893,0 194.497238,3.80620819 194.497238,9.23005485 C194.497238,14.6539015 191.737737,18.4601097 186.409046,18.4601097 Z M191.261961,9.23005485 C191.261961,5.23353626 189.549168,2.75950094 186.409046,2.75950094 C183.268924,2.75950094 181.556131,5.13838105 181.556131,9.23005485 C181.556131,13.3217287 183.268924,15.7006088 186.409046,15.7006088 C189.549168,15.7006088 191.261961,13.2265735 191.261961,9.23005485 Z" id="Shape"></path>
                    <path d="M210.959089,0.285465614 C211.054244,0.285465614 211.054244,0.380620819 211.054244,0.380620819 L211.054244,18.0794889 C211.054244,18.1746441 210.959089,18.1746441 210.959089,18.1746441 L207.152881,18.1746441 C207.057725,18.1746441 206.96257,18.0794889 206.96257,18.0794889 L200.01624,4.66260503 C199.921085,4.47229462 199.730775,4.56744982 199.730775,4.66260503 L199.730775,18.0794889 C199.730775,18.1746441 199.635619,18.1746441 199.635619,18.1746441 L196.780963,18.1746441 C196.685808,18.1746441 196.685808,18.0794889 196.685808,18.0794889 L196.685808,0.380620819 C196.685808,0.285465614 196.780963,0.285465614 196.780963,0.285465614 L200.587171,0.285465614 C200.682327,0.285465614 200.682327,0.380620819 200.777482,0.380620819 L207.723812,13.7975047 C207.818967,13.9878151 208.009277,13.8926599 208.009277,13.7975047 L208.009277,0.380620819 C208.009277,0.285465614 208.104433,0.285465614 208.104433,0.285465614 L210.959089,0.285465614 Z" id="Path"></path>
                </g>
                <path d="M117.516678,27.5950094 L114.471711,24.2645772 C115.137798,23.0275595 115.042642,21.8856971 115.042642,21.4099211 C115.042642,21.4099211 115.042642,21.3147658 115.042642,21.3147658 L115.042642,19.7922826 L115.042642,19.2213513 C115.042642,19.1261961 114.947487,19.1261961 114.947487,19.1261961 L112.283142,19.1261961 C112.187986,19.1261961 112.187986,19.2213513 112.187986,19.2213513 L112.187986,21.4099211 C112.187986,21.5050763 112.187986,21.6953867 112.187986,21.7905419 C112.187986,21.8856971 112.092831,21.8856971 112.092831,21.7905419 L109.047865,18.4601097 C108.952709,18.3649545 108.952709,18.3649545 109.047865,18.2697993 C111.046124,17.6037129 112.568607,16.4618504 112.568607,13.9878151 C112.568607,11.608935 110.570348,9.61067567 107.715692,9.61067567 C104.670725,9.61067567 102.767621,11.7040902 102.767621,13.7975047 C102.767621,15.6054536 103.433707,16.4618504 104.290104,17.4134025 C104.38526,17.5085577 104.38526,17.5085577 104.290104,17.6037129 C102.957931,18.4601097 101.340293,20.1729034 101.340293,22.4566283 C101.340293,25.5967501 103.433707,28.1659406 107.715692,28.1659406 C108.952709,28.1659406 110.094572,27.9756302 111.046124,27.4998542 L111.046124,27.4998542 C111.046124,27.4998542 111.046124,27.4998542 111.046124,27.4998542 C111.617055,27.2143885 112.187986,26.9289229 112.568607,26.6434573 L112.663762,26.5483021 C112.663762,26.5483021 113.90078,27.7853198 113.90078,27.7853198 C113.995935,27.880475 114.09109,27.880475 114.186246,27.880475 L117.421523,27.880475 C117.516678,27.7853198 117.516678,27.6901646 117.516678,27.5950094 Z M107.620536,12.1798662 C108.762399,12.1798662 109.713951,12.7507974 109.713951,13.9878151 C109.713951,15.319988 108.667244,15.6054536 107.335071,16.27154 C107.239916,16.3666952 107.14476,16.3666952 107.049605,16.27154 C106.383519,15.6054536 105.622277,15.0345223 105.622277,13.9878151 C105.622277,12.7507974 106.478674,12.1798662 107.620536,12.1798662 Z M104.38526,22.2663179 C104.38526,20.934145 105.241656,20.1729034 106.098053,19.506817 C106.193208,19.4116618 106.288364,19.506817 106.288364,19.506817 L110.570348,24.169422 C110.570348,24.169422 110.665503,24.2645772 110.570348,24.2645772 C109.904261,24.7403532 108.762399,25.0258188 107.620536,25.0258188 C105.622277,25.120974 104.38526,23.8839564 104.38526,22.2663179 Z" id="Shape" fill="#FFFFFF"></path>
            </g>
        </g>
    </g>
</svg>